<svg class="MuiSvgIcon-root MuiSvgIcon-fontSizeMedium css-1ak090" focusable="false" aria-hidden="true" viewBox="0 0 12 12" width="14" height="14" fill="none" xmlns="http://www.w3.org/2000/svg"><circle cx="6" cy="6" r="6" fill="#499557"></circle><rect x="2.18176" y="2.18182" width="7.63636" height="7.63636" rx="3.81818" fill="#499557"></rect><path fill-rule="evenodd" clip-rule="evenodd" d="M3.9503 3.0729C3.99481 3.00807 4.0684 2.96933 4.14704 2.96933H8.08874C8.16938 2.96933 8.24457 3.01006 8.28862 3.0776L9.24879 4.54977C9.30203 4.63141 9.30028 4.73722 9.24436 4.81705L6.36388 8.92897C6.3198 8.99189 6.24814 9.02974 6.17133 9.03068C6.09451 9.03161 6.02195 8.99551 5.97636 8.93368L2.94428 4.82176C2.88394 4.73994 2.88207 4.62888 2.93961 4.54507L3.9503 3.0729ZM4.14704 3.62959L4.70444 4.4415H3.58964L4.14704 3.62959ZM3.60881 4.91877L5.65157 7.68903L4.97065 4.91877H3.60881ZM5.61103 4.4415L6.16843 3.62959L6.72584 4.4415H5.61103ZM6.87474 4.91877L6.16843 7.7923L5.46213 4.91877H6.87474ZM6.7045 7.61088L7.36622 4.91877H8.59037L6.7045 7.61088ZM8.60836 4.4415H7.6071L8.09419 3.65315L8.60836 4.4415ZM7.66078 3.4466H6.62172L7.16861 4.24317L7.66078 3.4466ZM5.71513 3.4466H4.60033L5.15773 4.25851L5.71513 3.4466Z" fill="white"></path></svg>