<svg xmlns="http://www.w3.org/2000/svg" viewBox="0 0 100 100" preserveAspectRatio="xMidYMid" width="113" height="113" style="shape-rendering: auto; display: block; background-color: rgb(255, 255, 255);" xmlns:xlink="http://www.w3.org/1999/xlink"><g><g transform="rotate(0 50 50)">
  <rect fill="#71feb7" height="12" width="7" ry="3.84" rx="3.5" y="24" x="46.5">
    <animate repeatCount="indefinite" begin="-1.1178861788617886s" dur="1.2195121951219512s" keyTimes="0;1" values="1;0" attributeName="opacity"></animate>
  </rect>
</g><g transform="rotate(30 50 50)">
  <rect fill="#71feb7" height="12" width="7" ry="3.84" rx="3.5" y="24" x="46.5">
    <animate repeatCount="indefinite" begin="-1.016260162601626s" dur="1.2195121951219512s" keyTimes="0;1" values="1;0" attributeName="opacity"></animate>
  </rect>
</g><g transform="rotate(60 50 50)">
  <rect fill="#71feb7" height="12" width="7" ry="3.84" rx="3.5" y="24" x="46.5">
    <animate repeatCount="indefinite" begin="-0.9146341463414634s" dur="1.2195121951219512s" keyTimes="0;1" values="1;0" attributeName="opacity"></animate>
  </rect>
</g><g transform="rotate(90 50 50)">
  <rect fill="#71feb7" height="12" width="7" ry="3.84" rx="3.5" y="24" x="46.5">
    <animate repeatCount="indefinite" begin="-0.8130081300813008s" dur="1.2195121951219512s" keyTimes="0;1" values="1;0" attributeName="opacity"></animate>
  </rect>
</g><g transform="rotate(120 50 50)">
  <rect fill="#71feb7" height="12" width="7" ry="3.84" rx="3.5" y="24" x="46.5">
    <animate repeatCount="indefinite" begin="-0.7113821138211383s" dur="1.2195121951219512s" keyTimes="0;1" values="1;0" attributeName="opacity"></animate>
  </rect>
</g><g transform="rotate(150 50 50)">
  <rect fill="#71feb7" height="12" width="7" ry="3.84" rx="3.5" y="24" x="46.5">
    <animate repeatCount="indefinite" begin="-0.6097560975609756s" dur="1.2195121951219512s" keyTimes="0;1" values="1;0" attributeName="opacity"></animate>
  </rect>
</g><g transform="rotate(180 50 50)">
  <rect fill="#71feb7" height="12" width="7" ry="3.84" rx="3.5" y="24" x="46.5">
    <animate repeatCount="indefinite" begin="-0.508130081300813s" dur="1.2195121951219512s" keyTimes="0;1" values="1;0" attributeName="opacity"></animate>
  </rect>
</g><g transform="rotate(210 50 50)">
  <rect fill="#71feb7" height="12" width="7" ry="3.84" rx="3.5" y="24" x="46.5">
    <animate repeatCount="indefinite" begin="-0.4065040650406504s" dur="1.2195121951219512s" keyTimes="0;1" values="1;0" attributeName="opacity"></animate>
  </rect>
</g><g transform="rotate(240 50 50)">
  <rect fill="#71feb7" height="12" width="7" ry="3.84" rx="3.5" y="24" x="46.5">
    <animate repeatCount="indefinite" begin="-0.3048780487804878s" dur="1.2195121951219512s" keyTimes="0;1" values="1;0" attributeName="opacity"></animate>
  </rect>
</g><g transform="rotate(270 50 50)">
  <rect fill="#71feb7" height="12" width="7" ry="3.84" rx="3.5" y="24" x="46.5">
    <animate repeatCount="indefinite" begin="-0.2032520325203252s" dur="1.2195121951219512s" keyTimes="0;1" values="1;0" attributeName="opacity"></animate>
  </rect>
</g><g transform="rotate(300 50 50)">
  <rect fill="#71feb7" height="12" width="7" ry="3.84" rx="3.5" y="24" x="46.5">
    <animate repeatCount="indefinite" begin="-0.1016260162601626s" dur="1.2195121951219512s" keyTimes="0;1" values="1;0" attributeName="opacity"></animate>
  </rect>
</g><g transform="rotate(330 50 50)">
  <rect fill="#71feb7" height="12" width="7" ry="3.84" rx="3.5" y="24" x="46.5">
    <animate repeatCount="indefinite" begin="0s" dur="1.2195121951219512s" keyTimes="0;1" values="1;0" attributeName="opacity"></animate>
  </rect>
</g><g></g></g><!-- [ldio] generated by https://loading.io --></svg>